<svg width="1920" height="1080" viewBox="0 0 1920 1080" fill="none" xmlns="http://www.w3.org/2000/svg">
<g clip-path="url(#clip0_157_2)">
<rect width="1920" height="1080" fill="#00060C"/>
<rect width="1920" height="1080" fill="url(#paint0_linear_157_2)" fill-opacity="0.35"/>
<rect width="1920" height="1080" fill="url(#paint1_linear_157_2)" fill-opacity="0.35"/>
<path d="M1276.41 894.67C1358.49 878.172 1441.07 943.86 1460.72 1041.61C1480.36 1139.35 1429.57 1231.84 1347.49 1248.34C1265.4 1264.84 1182.82 1199.15 1163.18 1101.4C1143.53 1003.66 1194.32 911.167 1276.41 894.67Z" stroke="#FE0031" stroke-opacity="0.35"/>
<path d="M1159.41 519.67C1241.49 503.172 1324.07 568.86 1343.72 666.607C1363.36 764.353 1312.57 856.844 1230.49 873.342C1148.4 889.839 1065.82 824.151 1046.18 726.405C1026.53 628.659 1077.32 536.168 1159.41 519.67Z" stroke="#FE0031" stroke-opacity="0.35"/>
<path d="M1476.41 363.67C1558.49 347.172 1641.07 412.86 1660.72 510.607C1680.36 608.353 1629.57 700.844 1547.49 717.342C1465.4 733.839 1382.82 668.151 1363.18 570.405C1343.53 472.659 1394.32 380.168 1476.41 363.67Z" stroke="#FE0031" stroke-opacity="0.35"/>
<path d="M1795.41 224.67C1877.49 208.172 1960.07 273.86 1979.72 371.607C1999.36 469.353 1948.57 561.844 1866.49 578.342C1784.4 594.839 1701.82 529.151 1682.18 431.405C1662.53 333.659 1713.32 241.168 1795.41 224.67Z" stroke="#FE0031" stroke-opacity="0.35"/>
<path d="M1597.41 737.67C1679.49 721.172 1762.07 786.86 1781.72 884.606C1801.36 982.353 1750.57 1074.84 1668.49 1091.34C1586.4 1107.84 1503.82 1042.15 1484.18 944.405C1464.53 846.658 1515.32 754.167 1597.41 737.67Z" stroke="#FFCC00" stroke-opacity="0.35"/>
<path d="M1921.41 598.67C2003.49 582.172 2086.07 647.86 2105.72 745.607C2125.36 843.353 2074.57 935.844 1992.49 952.342C1910.4 968.839 1827.82 903.151 1808.18 805.405C1788.53 707.659 1839.32 615.168 1921.41 598.67Z" stroke="#FFCC00" stroke-opacity="0.35"/>
<path d="M1661.41 -141.33C1743.49 -157.828 1826.07 -92.1396 1845.72 5.60666C1865.36 103.353 1814.57 195.844 1732.49 212.342C1650.4 228.839 1567.82 163.151 1548.18 65.4049C1528.53 -32.3413 1579.32 -124.832 1661.41 -141.33Z" stroke="#FFCC00" stroke-opacity="0.35"/>
<path d="M1263.36 894.488C1345.45 877.99 1428.02 943.678 1447.67 1041.42C1467.31 1139.17 1416.53 1231.66 1334.44 1248.16C1252.35 1264.66 1169.77 1198.97 1150.13 1101.22C1130.48 1003.48 1181.27 910.985 1263.36 894.488Z" stroke="#FE0031" stroke-opacity="0.35"/>
<path d="M1146.36 519.488C1228.45 502.99 1311.02 568.678 1330.67 666.425C1350.31 764.171 1299.53 856.662 1217.44 873.159C1135.35 889.657 1052.77 823.969 1033.13 726.223C1013.48 628.477 1064.27 535.986 1146.36 519.488Z" stroke="#FE0031" stroke-opacity="0.35"/>
<path d="M1463.36 363.488C1545.45 346.99 1628.02 412.678 1647.67 510.425C1667.31 608.171 1616.53 700.662 1534.44 717.159C1452.35 733.657 1369.77 667.969 1350.13 570.223C1330.48 472.477 1381.27 379.986 1463.36 363.488Z" stroke="#FE0031" stroke-opacity="0.35"/>
<path d="M1782.36 224.488C1864.45 207.99 1947.02 273.678 1966.67 371.425C1986.31 469.171 1935.53 561.662 1853.44 578.159C1771.35 594.657 1688.77 528.969 1669.13 431.223C1649.48 333.477 1700.27 240.986 1782.36 224.488Z" stroke="#FE0031" stroke-opacity="0.35"/>
<path d="M1584.36 737.488C1666.45 720.99 1749.02 786.678 1768.67 884.424C1788.31 982.171 1737.53 1074.66 1655.44 1091.16C1573.35 1107.66 1490.77 1041.97 1471.13 944.223C1451.48 846.476 1502.27 753.985 1584.36 737.488Z" stroke="#FFCC00" stroke-opacity="0.35"/>
<path d="M1908.36 598.488C1990.45 581.99 2073.02 647.678 2092.67 745.425C2112.31 843.171 2061.53 935.662 1979.44 952.159C1897.35 968.657 1814.77 902.969 1795.13 805.223C1775.48 707.477 1826.27 614.986 1908.36 598.488Z" stroke="#FFCC00" stroke-opacity="0.35"/>
<path d="M1648.36 -141.512C1730.45 -158.01 1813.02 -92.3217 1832.67 5.42454C1852.31 103.171 1801.53 195.662 1719.44 212.159C1637.35 228.657 1554.77 162.969 1535.13 65.2228C1515.48 -32.5235 1566.27 -125.014 1648.36 -141.512Z" stroke="#FFCC00" stroke-opacity="0.35"/>
<path d="M1248.36 894.488C1330.45 877.99 1413.02 943.678 1432.67 1041.42C1452.31 1139.17 1401.53 1231.66 1319.44 1248.16C1237.35 1264.66 1154.77 1198.97 1135.13 1101.22C1115.48 1003.48 1166.27 910.985 1248.36 894.488Z" stroke="#FE0031" stroke-opacity="0.35"/>
<path d="M1131.36 519.488C1213.45 502.99 1296.02 568.678 1315.67 666.425C1335.31 764.171 1284.53 856.662 1202.44 873.159C1120.35 889.657 1037.77 823.969 1018.13 726.223C998.484 628.477 1049.27 535.986 1131.36 519.488Z" stroke="#FE0031" stroke-opacity="0.35"/>
<path d="M1448.36 363.488C1530.45 346.99 1613.02 412.678 1632.67 510.425C1652.31 608.171 1601.53 700.662 1519.44 717.159C1437.35 733.657 1354.77 667.969 1335.13 570.223C1315.48 472.477 1366.27 379.986 1448.36 363.488Z" stroke="#FE0031" stroke-opacity="0.35"/>
<path d="M1767.36 224.488C1849.45 207.99 1932.02 273.678 1951.67 371.425C1971.31 469.171 1920.53 561.662 1838.44 578.159C1756.35 594.657 1673.77 528.969 1654.13 431.223C1634.48 333.477 1685.27 240.986 1767.36 224.488Z" stroke="#FE0031" stroke-opacity="0.35"/>
<path d="M1569.36 737.488C1651.45 720.99 1734.02 786.678 1753.67 884.424C1773.31 982.171 1722.53 1074.66 1640.44 1091.16C1558.35 1107.66 1475.77 1041.97 1456.13 944.223C1436.48 846.476 1487.27 753.985 1569.36 737.488Z" stroke="#FFCC00" stroke-opacity="0.35"/>
<path d="M1893.36 598.488C1975.45 581.99 2058.02 647.678 2077.67 745.425C2097.31 843.171 2046.53 935.662 1964.44 952.159C1882.35 968.657 1799.77 902.969 1780.13 805.223C1760.48 707.477 1811.27 614.986 1893.36 598.488Z" stroke="#FFCC00" stroke-opacity="0.35"/>
<path d="M1633.36 -141.512C1715.45 -158.01 1798.02 -92.3217 1817.67 5.42454C1837.31 103.171 1786.53 195.662 1704.44 212.159C1622.35 228.657 1539.77 162.969 1520.13 65.2228C1500.48 -32.5235 1551.27 -125.014 1633.36 -141.512Z" stroke="#FFCC00" stroke-opacity="0.35"/>
</g>
<defs>
<linearGradient id="paint0_linear_157_2" x1="2403.33" y1="1927.67" x2="1547.93" y2="169.791" gradientUnits="userSpaceOnUse">
<stop stop-color="#FE0031"/>
<stop offset="0.874472" stop-color="#FE0031" stop-opacity="0"/>
</linearGradient>
<linearGradient id="paint1_linear_157_2" x1="349.333" y1="-219.767" x2="1173.11" y2="1344.54" gradientUnits="userSpaceOnUse">
<stop stop-color="#FFCC00"/>
<stop stop-color="#FFCC00" stop-opacity="0.522284"/>
<stop stop-color="#FFCC00" stop-opacity="0.553917"/>
<stop stop-color="#FFCC00" stop-opacity="0"/>
<stop stop-color="#FFCC00" stop-opacity="0.615135"/>
<stop offset="0.35" stop-color="#FFCC00" stop-opacity="0"/>
</linearGradient>
<clipPath id="clip0_157_2">
<rect width="1920" height="1080" fill="white"/>
</clipPath>
</defs>
</svg>
